<svg width="128" height="128" viewBox="0 0 128 128" fill="none" xmlns="http://www.w3.org/2000/svg">
<rect width="128" height="128" rx="64" fill="#18181B"/>
<path d="M13.02 59.212C13.932 58.948 15.108 58.708 16.548 58.492C17.988 58.252 19.5 58.132 21.084 58.132C22.692 58.132 24.024 58.348 25.08 58.78C26.16 59.188 27.012 59.776 27.636 60.544C28.26 61.312 28.704 62.224 28.968 63.28C29.232 64.336 29.364 65.512 29.364 66.808V77.5H24V67.456C24 65.728 23.772 64.504 23.316 63.784C22.86 63.064 22.008 62.704 20.76 62.704C20.376 62.704 19.968 62.728 19.536 62.776C19.104 62.8 18.72 62.836 18.384 62.884V77.5H13.02V59.212Z" fill="white"/>
<path d="M40.6632 75.808C41.5752 75.808 42.3672 75.784 43.0392 75.736C43.7352 75.664 44.3232 75.58 44.8032 75.484V68.932C44.5392 68.812 44.1192 68.692 43.5432 68.572C42.9672 68.428 42.1752 68.356 41.1672 68.356C40.5912 68.356 39.9912 68.404 39.3672 68.5C38.7432 68.572 38.1672 68.752 37.6392 69.04C37.1112 69.304 36.6792 69.676 36.3432 70.156C36.0072 70.636 35.8392 71.272 35.8392 72.064C35.8392 72.76 35.9472 73.348 36.1632 73.828C36.4032 74.308 36.7272 74.692 37.1352 74.98C37.5672 75.268 38.0712 75.484 38.6472 75.628C39.2472 75.748 39.9192 75.808 40.6632 75.808ZM40.4472 58.456C41.6712 58.456 42.7032 58.636 43.5432 58.996C44.4072 59.332 45.1032 59.812 45.6312 60.436C46.1592 61.036 46.5432 61.756 46.7832 62.596C47.0232 63.436 47.1432 64.348 47.1432 65.332V77.068C46.9032 77.14 46.5552 77.224 46.0992 77.32C45.6432 77.392 45.1152 77.476 44.5152 77.572C43.9152 77.668 43.2432 77.74 42.4992 77.788C41.7792 77.86 41.0352 77.896 40.2672 77.896C39.2832 77.896 38.3712 77.788 37.5312 77.572C36.7152 77.356 35.9952 77.02 35.3712 76.564C34.7712 76.084 34.2912 75.484 33.9312 74.764C33.5952 74.02 33.4272 73.12 33.4272 72.064C33.4272 71.056 33.6192 70.192 34.0032 69.472C34.3872 68.752 34.9272 68.164 35.6232 67.708C36.3192 67.228 37.1472 66.88 38.1072 66.664C39.0672 66.448 40.1112 66.34 41.2392 66.34C41.5752 66.34 41.9232 66.364 42.2832 66.412C42.6672 66.436 43.0272 66.484 43.3632 66.556C43.7232 66.604 44.0232 66.664 44.2632 66.736C44.5272 66.784 44.7072 66.832 44.8032 66.88V65.728C44.8032 65.08 44.7552 64.456 44.6592 63.856C44.5632 63.232 44.3472 62.68 44.0112 62.2C43.6992 61.696 43.2432 61.3 42.6432 61.012C42.0672 60.7 41.2992 60.544 40.3392 60.544C38.9712 60.544 37.9512 60.64 37.2792 60.832C36.6072 61.024 36.1152 61.18 35.8032 61.3L35.4792 59.248C35.8872 59.056 36.5112 58.876 37.3512 58.708C38.2152 58.54 39.2472 58.456 40.4472 58.456ZM56.4236 75.952C56.4236 76.504 56.2436 76.972 55.8836 77.356C55.5476 77.74 55.0676 77.932 54.4436 77.932C53.8196 77.932 53.3276 77.74 52.9676 77.356C52.6316 76.972 52.4636 76.504 52.4636 75.952C52.4636 75.4 52.6316 74.932 52.9676 74.548C53.3276 74.164 53.8196 73.972 54.4436 73.972C55.0676 73.972 55.5476 74.164 55.8836 74.548C56.2436 74.932 56.4236 75.4 56.4236 75.952ZM76.767 76.924C76.071 77.164 75.183 77.392 74.103 77.608C73.023 77.824 71.655 77.932 69.999 77.932C68.631 77.932 67.383 77.716 66.255 77.284C65.151 76.828 64.191 76.18 63.375 75.34C62.583 74.5 61.959 73.48 61.503 72.28C61.071 71.08 60.855 69.724 60.855 68.212C60.855 66.796 61.035 65.5 61.395 64.324C61.779 63.124 62.331 62.092 63.051 61.228C63.771 60.364 64.647 59.692 65.679 59.212C66.735 58.732 67.935 58.492 69.279 58.492C70.503 58.492 71.559 58.672 72.447 59.032C73.359 59.368 74.019 59.692 74.427 60.004V49.996L76.767 49.564V76.924ZM74.427 62.272C74.211 62.104 73.935 61.924 73.599 61.732C73.287 61.54 72.915 61.36 72.483 61.192C72.051 61.024 71.583 60.892 71.079 60.796C70.575 60.676 70.047 60.616 69.495 60.616C68.343 60.616 67.371 60.82 66.579 61.228C65.811 61.636 65.187 62.188 64.707 62.884C64.227 63.556 63.879 64.36 63.663 65.296C63.447 66.208 63.339 67.18 63.339 68.212C63.339 70.66 63.951 72.544 65.175 73.864C66.399 75.16 68.019 75.808 70.035 75.808C71.187 75.808 72.111 75.76 72.807 75.664C73.527 75.544 74.067 75.424 74.427 75.304V62.272ZM81.8433 68.176C81.8433 66.544 82.0713 65.128 82.5273 63.928C83.0073 62.704 83.6193 61.684 84.3633 60.868C85.1313 60.052 85.9953 59.452 86.9553 59.068C87.9393 58.66 88.9473 58.456 89.9793 58.456C92.2593 58.456 94.0713 59.2 95.4153 60.688C96.7833 62.176 97.4673 64.468 97.4673 67.564C97.4673 67.756 97.4553 67.948 97.4313 68.14C97.4313 68.332 97.4193 68.512 97.3953 68.68H84.3273C84.3993 70.96 84.9633 72.712 86.0193 73.936C87.0753 75.16 88.7553 75.772 91.0593 75.772C92.3313 75.772 93.3393 75.652 94.0833 75.412C94.8273 75.172 95.3673 74.968 95.7033 74.8L96.1353 76.816C95.7993 77.008 95.1633 77.236 94.2273 77.5C93.3153 77.764 92.2353 77.896 90.9873 77.896C89.3553 77.896 87.9633 77.656 86.8113 77.176C85.6593 76.696 84.7113 76.024 83.9673 75.16C83.2233 74.296 82.6833 73.276 82.3473 72.1C82.0113 70.9 81.8433 69.592 81.8433 68.176ZM95.0553 66.7C95.0073 64.756 94.5513 63.244 93.6873 62.164C92.8233 61.084 91.5993 60.544 90.0153 60.544C89.1753 60.544 88.4193 60.712 87.7473 61.048C87.0993 61.384 86.5233 61.84 86.0193 62.416C85.5393 62.968 85.1553 63.616 84.8673 64.36C84.6033 65.104 84.4473 65.884 84.3993 66.7H95.0553ZM108.298 74.98C108.802 73.948 109.318 72.772 109.846 71.452C110.374 70.108 110.878 68.728 111.358 67.312C111.862 65.872 112.318 64.432 112.726 62.992C113.158 61.528 113.518 60.16 113.806 58.888H116.146C115.714 60.592 115.234 62.272 114.706 63.928C114.178 65.584 113.614 67.204 113.014 68.788C112.438 70.372 111.826 71.896 111.178 73.36C110.554 74.824 109.942 76.204 109.342 77.5H107.11C106.486 76.204 105.862 74.824 105.238 73.36C104.614 71.896 104.002 70.372 103.402 68.788C102.826 67.204 102.274 65.584 101.746 63.928C101.218 62.272 100.738 60.592 100.306 58.888H102.79C103.078 60.16 103.426 61.528 103.834 62.992C104.266 64.432 104.722 65.872 105.202 67.312C105.706 68.728 106.222 70.108 106.75 71.452C107.278 72.772 107.794 73.948 108.298 74.98Z" fill="#71717A"/>
</svg>
